<svg width="32" height="32" viewBox="0 0 32 32" fill="none" xmlns="http://www.w3.org/2000/svg">
<path fill-rule="evenodd" clip-rule="evenodd" d="M16 32C24.8366 32 32 24.8366 32 16C32 7.16344 24.8366 0 16 0C7.16344 0 0 7.16344 0 16C0 24.8366 7.16344 32 16 32Z" fill="white"/>
<path fill-rule="evenodd" clip-rule="evenodd" d="M23.9125 11.9813C23.7563 11.8 23.5063 11.7125 23.3125 11.65C23.1125 10.925 22.5875 10.3375 21.9937 9.9875C21.1625 9.5 20.3062 9.35 19.3688 9.3625C18.6875 9.3625 17.975 9.475 17.2625 9.7125C17.0125 9.8 16.75 9.9 16.5 10.0125L16.3875 10.0625L16.3438 9.9375C16.2438 9.625 16.0688 9.35 15.8688 9.1375C15.4688 8.725 14.9188 8.4875 14.3688 8.5125C13.9938 8.525 13.625 8.625 13.3 8.8C12.8188 9.05 12.4625 9.475 12.3 9.9875C12.225 10.2375 12.2 10.5 12.2125 10.7625C12.225 11.05 12.2875 11.325 12.3938 11.5875L12.4625 11.75L12.2938 11.825C11.85 12 11.45 12.2625 11.1375 12.5875C10.7188 13.0125 10.4625 13.5375 10.3438 14.1C10.25 14.5375 10.25 14.9875 10.3313 15.425C10.4625 16.125 10.8188 16.725 11.325 17.175C11.7563 17.55 12.275 17.8125 12.8125 17.9375C13.3875 18.075 13.9938 18.0875 14.5813 17.9875C15.2813 17.875 15.9375 17.6 16.5438 17.2L16.6438 17.1375L16.65 17.2625C16.65 17.4875 16.6688 17.7 16.7 17.925C16.7625 18.3375 16.9 18.7375 17.125 19.0875C17.45 19.6125 17.9438 19.9875 18.5125 20.1875C19.075 20.3875 19.675 20.425 20.2625 20.2875C20.6313 20.2 20.975 20.025 21.275 19.7875C21.5813 19.55 21.8313 19.2375 21.9875 18.8875C22.225 18.3375 22.275 17.7375 22.15 17.1625C22.025 16.5625 21.6938 16.05 21.2438 15.675C20.875 15.3625 20.425 15.1375 19.95 15C19.4688 14.8625 18.9563 14.8125 18.45 14.85L18.3188 14.8625L18.2688 14.7375C18.1813 14.5125 18.05 14.3125 17.8938 14.1375C17.4938 13.6875 16.95 13.4 16.3688 13.275C15.975 13.2 15.575 13.1875 15.175 13.2375C14.775 13.2875 14.3813 13.4 14.025 13.575C13.55 13.8 13.1688 14.1375 12.8625 14.55C12.7 14.7625 12.575 14.9875 12.475 15.225L12.4375 15.3125L12.35 15.2875C12.1438 15.225 11.9375 15.15 11.7438 15.0625C11.4625 14.925 11.2 14.75 11 14.525C10.7625 14.2625 10.6063 13.9375 10.55 13.5875C10.5063 13.35 10.5063 13.1 10.55 12.8625C10.6188 12.4625 10.8188 12.1125 11.1 11.8625C11.3125 11.6625 11.5688 11.5125 11.8438 11.4125C12.0938 11.3125 12.3625 11.2625 12.625 11.2375H12.7875V11.075C12.7875 10.8375 12.7938 10.5939 12.8375 10.3814C12.875 10.1814 12.9438 9.99385 13.05 9.82509C13.175 9.63134 13.35 9.48134 13.55 9.39385C13.7 9.32509 13.8688 9.29385 14.0375 9.30009C14.2875 9.30634 14.525 9.38759 14.725 9.52509C14.925 9.66259 15.075 9.86259 15.175 10.0876C15.3 10.4001 15.3375 10.7314 15.3 11.0563C15.2688 11.2626 15.2 11.4626 15.1 11.6501C15.0188 11.8189 14.9125 11.9751 14.8 12.1189C14.6875 12.2626 14.5688 12.4001 14.45 12.5313L14.3563 12.6313L14.3688 12.7626C14.3688 12.8438 14.3875 12.9251 14.4063 13.0001C14.45 13.1563 14.5313 13.3001 14.6375 13.4189C14.8375 13.6313 15.125 13.7563 15.425 13.7626C15.65 13.7751 15.875 13.7251 16.075 13.6376C16.2375 13.5688 16.3813 13.4626 16.5 13.3376C16.7563 13.0626 16.9 12.7126 16.9375 12.3376C16.9625 12.0313 16.925 11.7189 16.8313 11.4251C16.7313 11.1314 16.5688 10.8626 16.3625 10.6251C16.0563 10.2751 15.6688 10.0126 15.25 9.8376C14.9 9.6876 14.525 9.6063 14.15 9.5876C13.7125 9.5626 13.275 9.6376 12.8625 9.8001C12.5063 9.9376 12.175 10.1376 11.8938 10.3938C11.6188 10.6501 11.4 10.9438 11.2375 11.2688C11.0938 11.5563 11 11.8751 10.9563 12.1938C10.9063 12.5188 10.9 12.8501 10.9375 13.1751C11.0125 13.8251 11.275 14.4313 11.7 14.9438C12.0063 15.3188 12.3938 15.6189 12.825 15.8376C13.0125 15.9314 13.2125 16.0126 13.4125 16.0814L13.5563 16.1314L13.5063 16.2751C13.4125 16.5814 13.3755 16.9001 13.3751 17.2189C13.3751 17.5126 13.4188 17.8126 13.5125 18.1001C13.7063 18.7251 14.1313 19.2564 14.6813 19.6126C15.225 19.9751 15.8688 20.1751 16.5313 20.2126C17.1625 20.2564 17.8063 20.1251 18.3563 19.8751C18.8313 19.6626 19.2375 19.3251 19.5313 18.9126C19.8313 18.5001 20.0063 18.0064 20.0313 17.5001C20.0563 17.0001 19.9375 16.5001 19.7 16.0564C19.5688 15.8126 19.4 15.5876 19.2063 15.3939C19.05 15.2439 18.8813 15.1126 18.7 15.0001C18.5188 14.8876 18.325 14.7876 18.125 14.7126L18 14.6626L18.0563 14.5376C18.1563 14.2751 18.1938 13.9876 18.1688 13.7001C18.1438 13.4251 18.05 13.1626 17.9063 12.9251C17.7188 12.6189 17.4438 12.3751 17.125 12.2251C16.825 12.0814 16.4875 12.0251 16.15 12.0626C15.8313 12.0939 15.525 12.2001 15.2563 12.3751C15.0063 12.5376 14.8 12.7564 14.6563 13.0126C14.5063 13.2751 14.425 13.5689 14.4125 13.8626C14.4 14.1564 14.4563 14.4564 14.575 14.7314C14.8188 15.2439 15.2313 15.6251 15.725 15.8439C16.2313 16.0689 16.7938 16.1314 17.3438 16.0439C17.85 15.9626 18.325 15.7689 18.7438 15.4939C19.1 15.2626 19.4063 14.9501 19.6563 14.5939C19.8813 14.2501 20.0438 13.8626 20.1563 13.4564C20.3188 12.8376 20.3375 12.1939 20.2125 11.5689C20.0813 10.9376 19.8125 10.3564 19.4125 9.8626C19.0375 9.4001 18.575 9.0376 18.05 8.7751C17.5625 8.5251 17.0313 8.3626 16.4938 8.2876C15.8813 8.2126 15.25 8.2376 14.65 8.3626C14.0688 8.4876 13.5125 8.7001 13.0125 9.0126C12.6375 9.2376 12.3 9.5189 12 9.8376C11.7 10.1626 11.4438 10.5251 11.2375 10.9126C11.0313 11.3001 10.875 11.7189 10.775 12.1439C10.65 12.6876 10.6 13.2501 10.6313 13.8064C10.6625 14.3564 10.775 14.9001 10.9688 15.4189C11.1625 15.9439 11.4375 16.4251 11.775 16.8751C12.05 17.2501 12.3688 17.5814 12.725 17.8814C12.9563 18.0751 13.2125 18.2376 13.475 18.3876L13.5938 18.4501L13.5188 18.5564C13.3688 18.7564 13.2375 18.9751 13.125 19.2001C12.925 19.6189 12.825 20.0814 12.8313 20.5376C12.8313 20.9126 12.9 21.2876 13.0375 21.6376C13.25 22.1939 13.625 22.6751 14.0938 23.0376C14.5625 23.4001 15.125 23.6314 15.7125 23.7376C16.35 23.8439 17.025 23.7876 17.6375 23.5689C18.0625 23.4126 18.45 23.1689 18.7875 22.8626C19.125 22.5564 19.4063 22.1876 19.6188 21.7751C19.9688 21.0376 20.0938 20.2001 19.9688 19.3876C19.9 18.9126 19.7438 18.4626 19.5125 18.0376C19.2813 17.6064 18.9938 17.2126 18.65 16.8626C18.25 16.4564 17.7938 16.1189 17.3 15.8564C16.8125 15.5939 16.2813 15.4001 15.7375 15.2876C15.2375 15.1751 14.725 15.1314 14.2188 15.1501C13.7125 15.1751 13.2188 15.2626 12.7375 15.4064L12.6063 15.4439L12.5813 15.3126C12.5313 15.0501 12.5313 14.7939 12.575 14.5376C12.6313 14.2251 12.7438 13.9251 12.9188 13.6626C13.1313 13.3564 13.4188 13.1126 13.75 12.9564C14.0813 12.8001 14.4375 12.7376 14.8 12.7689C15.1625 12.8001 15.5125 12.9189 15.8125 13.1126C16.1125 13.3064 16.3438 13.5876 16.4875 13.9064C16.525 13.9876 16.5563 14.0751 16.5813 14.1626L16.6188 14.2814L16.5 14.3189C16.225 14.4126 15.9625 14.5376 15.7125 14.6876C15.4688 14.8314 15.2375 15.0126 15.0313 15.2189C14.7938 15.4626 14.6 15.7376 14.45 16.0376C14.3 16.3376 14.2 16.6689 14.1625 17.0001C14.125 17.3689 14.1438 17.7376 14.225 18.1001C14.3063 18.4689 14.45 18.8126 14.6313 19.1314C14.8688 19.5376 15.1813 19.8876 15.5438 20.1751C15.8438 20.4189 16.1813 20.6189 16.5438 20.7626C16.8438 20.8876 17.1625 20.9814 17.4875 21.0439C17.8 21.1064 18.1188 21.1564 18.4375 21.1939C18.9625 21.2501 19.4938 21.2626 20.0188 21.2314C20.5438 21.2001 21.0625 21.1251 21.575 21.0189C21.925 20.9438 22.2688 20.8501 22.6063 20.7251C22.9438 20.6001 23.2688 20.4564 23.5813 20.2876C23.8938 20.1189 24.2 19.9251 24.4813 19.7064C24.7625 19.4939 25.025 19.2564 25.2625 19.0001L25.4312 18.8094L25.5688 18.9564C25.6501 19.0431 25.7365 19.1241 25.8271 19.1991C25.9188 19.2741 26.0063 19.3564 26.0876 19.4441C26.3501 19.7189 26.5751 20.0314 26.7438 20.3814C26.8625 20.6314 26.9563 20.8939 27.0188 21.1626C27.0813 21.4376 27.125 21.7126 27.1438 21.9939L27.1688 22.3376C27.1688 22.3376 25.5625 22.5876 24.6125 22.6251C24.6125 22.6251 19.2625 22.6939 15.3563 20.3939C15.3563 20.3939 11.45 18.1439 9.81252 14.3626C9.81252 14.3626 8.71877 11.7439 9.68752 9.8751C9.68752 9.8751 10.55 7.9564 12.9813 7.3189C12.9813 7.3189 14.9125 6.8251 16.9313 7.5939C16.9313 7.5939 18.95 8.3564 20.4188 10.9189C20.4188 10.9189 20.9375 12.0626 21.2063 13.3626C21.2063 13.3626 21.425 14.4063 21.425 15.6063C21.425 15.6063 21.425 17.7626 19.9375 19.1688C19.9375 19.1688 18.65 20.4063 16.575 20.3626C16.575 20.3626 14.5063 20.3189 13.2875 18.7751C13.2875 18.7751 12.5188 17.7876 12.625 16.1751C12.625 16.1751 12.7313 14.5626 14.025 13.5751C14.025 13.5751 14.875 12.9563 16.025 12.9126C16.025 12.9126 17.175 12.8001 18 13.6251C18 13.6251 18.425 14.0939 18.5813 14.8126C18.5813 14.8126 18.8375 16.2251 17.4063 16.6376C17.4063 16.6376 16.3375 16.9626 15.5813 16.2126C15.5813 16.2126 15.1875 15.8126 15.175 15.1626C15.175 15.1626 15.1688 14.5126 15.7250 14.3126C15.7250 14.3126 16.0063 14.2064 16.2313 14.4314C16.2313 14.4314 16.3938 14.6064 16.3063 14.8739C16.3063 14.8739 16.2188 15.1414 15.9313 15.1414C15.9313 15.1414 15.8063 15.1414 15.7438 15.0251C15.7438 15.0251 15.6813 14.9089 15.7438 14.8251C15.7438 14.8251 15.7875 14.7689 15.7563 14.7251C15.7563 14.7251 15.7188 14.6689 15.675 14.7064C15.675 14.7064 15.6063 14.7626 15.6375 14.8501C15.6375 14.8501 15.7063 15.0251 15.9000 15.0626C15.9000 15.0626 16.075 15.1001 16.2313 15.0064C16.2313 15.0064 16.3563 14.9251 16.3563 14.7064C16.3563 14.7064 16.3563 14.5064 16.2250 14.3876C16.2250 14.3876 16.0688 14.2314 15.8500 14.2501C15.8500 14.2501 15.3750 14.3126 15.2438 14.7251C15.2438 14.7251 15.0875 15.1626 15.3500 15.5189C15.3500 15.5189 15.6125 15.8751 16.1063 15.9001C16.1063 15.9001 16.8313 15.9376 17.1313 15.4939C17.1313 15.4939 17.4938 15.0064 17.2938 14.3126C17.2938 14.3126 17.1125 13.6251 16.5375 13.4001C16.5375 13.4001 15.675 13.0626 14.8625 13.4564C14.8625 13.4564 14.05 13.8376 13.8813 14.9376C13.8813 14.9376 13.6938 16.0376 14.3188 16.8189C14.3188 16.8189 14.9375 17.6001 16.25 17.6376C16.25 17.6376 17.5625 17.6751 18.4313 16.9001C18.4313 16.9001 19.3 16.1251 19.325 14.8376C19.325 14.8376 19.35 13.5314 18.7875 12.6251C18.7875 12.6251 18.2125 11.7064 17.0438 11.3564C17.0438 11.3564 15.8688 11.0001 14.7 11.4689C14.7 11.4689 13.5313 11.9376 13.0063 13.1314C13.0063 13.1314 12.5188 14.3064 12.7438 15.5939C12.7438 15.5939 12.9688 16.8814 13.8688 17.7564C13.8688 17.7564 14.7688 18.6314 16.1688 18.7251C16.1688 18.7251 17.5688 18.8189 18.5063 18.0189C18.5063 18.0189 19.4438 17.2189 19.6375 15.7626C19.6375 15.7626 19.8313 14.3064 19.3063 12.9626C19.3063 12.9626 18.7813 11.6189 17.6188 10.8501C17.6188 10.8501 16.4563 10.0814 14.8813 10.1501C14.8813 10.1501 13.3063 10.2189 12.0938 11.2189C12.0938 11.2189 10.8813 12.2189 10.7625 13.8251C10.7625 13.8251 10.6438 15.4314 11.3688 16.8251C11.3688 16.8251 12.0938 18.2189 13.5125 19.1189C13.5125 19.1189 14.9313 20.0189 16.9125 20.0126C16.9125 20.0126 18.8938 20.0064 20.2813 18.8501C20.2813 18.8501 21.6688 17.6939 21.7063 15.4001C21.7063 15.4001 21.7438 13.1064 20.6000 11.2939C20.6000 11.9813 23.9125 11.9813 23.9125 11.9813Z" fill="#2496ED"/>
</svg>