<svg width="32" height="32" viewBox="0 0 32 32" fill="none" xmlns="http://www.w3.org/2000/svg">
<path fill-rule="evenodd" clip-rule="evenodd" d="M16 32C24.8366 32 32 24.8366 32 16C32 7.16344 24.8366 0 16 0C7.16344 0 0 7.16344 0 16C0 24.8366 7.16344 32 16 32Z" fill="white"/>
<path fill-rule="evenodd" clip-rule="evenodd" d="M16.0051 9.56818L10.1113 12.7841L8.72728 23.2046L15.9926 21.8434L23.2727 23.2046L21.8887 12.7841L16.0051 9.56818ZM16.0051 7L24.0113 11.3182L25.7273 24.5L16.0051 22.75L6.27273 24.5L7.98864 11.3182L16.0051 7Z" fill="#7B5CFA"/>
<path fill-rule="evenodd" clip-rule="evenodd" d="M15.9887 10.9091L11.5455 13.4091L10.4545 21.4545L15.975 20.4545L21.5113 21.4545L20.4318 13.4091L15.9887 10.9091ZM15.9887 9L22.0909 12.2727L23.4545 22.9545L15.9887 21.6363L8.54546 22.9545L9.89773 12.2727L15.9887 9Z" fill="#7B5CFA"/>
</svg>