<svg width="32" height="32" viewBox="0 0 32 32" fill="none" xmlns="http://www.w3.org/2000/svg">
<path fill-rule="evenodd" clip-rule="evenodd" d="M16 32C24.8366 32 32 24.8366 32 16C32 7.16344 24.8366 0 16 0C7.16344 0 0 7.16344 0 16C0 24.8366 7.16344 32 16 32Z" fill="white"/>
<path d="M25 10.9748C25 10.4365 24.5665 10 24.0321 10H8.96789C8.43346 10 8 10.4365 8 10.9748V20.2347C8 20.773 8.43346 21.2095 8.96789 21.2095H18.183V22.9591H14.0733V24.9086H18.9633C19.2305 24.9086 19.4489 24.6588 19.4489 24.3466V21.2095H24.0321C24.5665 21.2095 25 20.773 25 20.2347V10.9748ZM12.2186 17.3106C12.3393 17.3106 12.4113 17.3855 12.4113 17.4978V18.6225C12.4113 18.7348 12.3393 18.8096 12.2186 18.8096H9.59882C9.47808 18.8096 9.40612 18.7348 9.40612 18.6225V13.2807C9.40612 13.1684 9.47808 13.0936 9.59882 13.0936H10.7668C10.8875 13.0936 10.9595 13.1684 10.9595 13.2807V17.3106H12.2186ZM16.7567 17.1609C16.7567 16.4865 16.4895 16.1868 15.9551 16.1868H14.4881V14.906C14.4881 14.7937 14.5596 14.7189 14.6803 14.7189H15.8242C15.9444 14.7189 16.017 14.7937 16.017 14.906V15.969C16.017 16.0812 16.089 16.1561 16.2098 16.1561H17.3417C17.4624 16.1561 17.5343 16.0812 17.5343 15.969V14.218C17.5343 13.5063 17.1688 13.0936 16.45 13.0936H14.0643C13.3449 13.0936 12.9799 13.5063 12.9799 14.218V17.6845C12.9799 18.3962 13.3449 18.809 14.0643 18.809H15.5807V20.0905C15.5807 20.2028 15.5081 20.2776 15.3874 20.2776H14.2435C14.1228 20.2776 14.0508 20.2028 14.0508 20.0905V19.0275C14.0508 18.9153 13.9782 18.8404 13.8575 18.8404H12.7256C12.6049 18.8404 12.5329 18.9153 12.5329 19.0275V20.7785C12.5329 21.4902 12.8978 21.9029 13.6173 21.9029H16.0023C16.7218 21.9029 17.0867 21.4902 17.0867 20.7785V17.3106C17.0873 17.1983 17.0159 17.1235 16.8951 17.1235H16.7567V17.1609ZM22.0127 13.0936H19.1739C18.4544 13.0936 18.0895 13.5063 18.0895 14.218V20.7785C18.0895 20.8907 18.1615 20.9656 18.2823 20.9656H19.45C19.5708 20.9656 19.6427 20.8907 19.6427 20.7785V18.9587H22.0127C22.7321 18.9587 23.097 18.5459 23.097 17.8342V14.218C23.097 13.5063 22.7321 13.0936 22.0127 13.0936ZM21.5836 17.3106H19.6427V14.7937H21.5836V17.3106Z" fill="#46E3B7"/>
</svg>