<svg width="100" height="100" viewBox="0 0 100 100" fill="none" xmlns="http://www.w3.org/2000/svg">
  <rect width="100" height="100" rx="10" fill="#E5E7EB"/>
  <path d="M50 30C38.954 30 30 38.954 30 50C30 61.046 38.954 70 50 70C61.046 70 70 61.046 70 50C70 38.954 61.046 30 50 30ZM50 64C42.268 64 36 57.732 36 50C36 42.268 42.268 36 50 36C57.732 36 64 42.268 64 50C64 57.732 57.732 64 50 64Z" fill="#9CA3AF"/>
  <path d="M50 42C45.582 42 42 45.582 42 50C42 54.418 45.582 58 50 58C54.418 58 58 54.418 58 50C58 45.582 54.418 42 50 42Z" fill="#9CA3AF"/>
</svg>