<?xml version="1.0" encoding="UTF-8" standalone="no"?>
<svg width="256px" height="185px" viewBox="0 0 256 185" version="1.1" xmlns="http://www.w3.org/2000/svg" xmlns:xlink="http://www.w3.org/1999/xlink" preserveAspectRatio="xMidYMid">
	<g>
		<path d="M250.715262,70.4932993 C245.949831,67.1597035 236.634785,66.8348806 230.244327,68.7618958 C229.248036,61.0143616 224.159892,54.8597845 216.880944,50.8868298 L212.219492,48.2349953 L209.57675,52.8993127 C206.077484,59.3693233 204.757371,70.0918651 207.930953,78.6439193 C208.954421,81.4326154 211.145288,85.9669412 215.547052,89.178016 C211.48013,91.7803795 203.975119,94.6319929 194.755484,94.6319929 L1.42527186,94.6319929 C0.466416128,99.0371367 0.173290145,103.669356 0.467436264,108.494122 C2.31241224,140.911213 25.2312608,166.18 52.9886631,166.18 C101.903314,166.18 139.494147,135.364115 152.010334,90.1398998 C158.852167,90.3248056 172.268167,89.9481337 180.739406,79.8821903 C181.25834,79.2590561 181.726499,78.5421828 182.190446,77.7951797 L182.190446,77.7951797 C183.471308,75.6624783 184.692995,73.3250571 185.563071,70.8469603 L185.785991,70.0918651 L185.071449,69.5779677 C180.419554,66.2143094 174.098462,65.0582829 167.121384,65.5889272 C164.76363,65.7773929 162.338345,66.1036252 159.88703,66.5454343 L159.88703,66.5454343 C162.129569,63.7169966 164.026397,60.4865373 165.32666,56.9344741 C169.728424,45.3385984 169.189864,30.0469673 161.362348,16.9564445 L157.211523,10.0266229 L150.281984,16.9564445 C141.78725,25.4801945 137.305611,41.4171356 140.750059,55.4822839 C141.019872,56.5907626 141.337085,57.7245493 141.691117,58.8598759 C137.558361,56.5052626 133.022018,54.4823403 128.316346,53.0693333 C115.059173,49.3501007 101.129298,51.1786196 90.4459186,57.564149 L83.8319939,61.7387383 L89.7238146,68.1491443 C97.9186242,77.0757492 110.58412,77.6400665 120.74876,72.5692216 C125.300713,70.3380542 130.110783,67.2391608 134.858591,63.2245329 C134.419607,63.2808908 133.977411,63.3358086 133.537787,63.4006139 C124.719297,64.7732451 117.115374,69.3539501 111.368233,76.2792099 C110.251952,77.6331327 109.224301,79.0547808 108.282424,80.5284543 C100.285435,80.7553655 92.8021946,78.0850151 87.5110121,72.7957124 C86.3232931,71.6077296 85.2532585,70.3259605 84.3098304,68.9674809 C77.1519745,58.3952424 74.9134475,30.1584355 87.0954782,13.9629343 C74.9134475,23.3213937 65.3287533,40.4947943 65.3287533,63.1865702 C65.3287533,66.1036252 65.5129659,68.9477871 65.8666235,71.7067062 C59.0247903,61.4592245 55.4468862,41.0227328 61.3771801,23.3594603 C49.0781065,33.8030922 41.8731436,51.7051535 41.8731436,70.1726402 C41.8731436,73.1337679 42.0649179,76.0441868 42.4185755,78.8705636 C35.7023268,68.94297 33.1554834,48.1267896 38.965221,31.2342668 C25.3857829,43.6211392 17.8356666,62.6734355 17.8356666,83.0744904 C17.8356666,91.6571776 19.3173925,99.8647644 22.010518,107.450784 C21.2002866,107.469499 20.3900552,107.498573 19.5721669,107.498573 C8.91175987,107.498573 0.968811303,101.072929 0.968811303,101.072929 C0.968811303,101.072929 10.1998919,143.506851 51.5842991,153.559465 C61.2239775,156.20529 70.3644237,156.617063 78.5592334,155.539897 C104.222374,151.855665 138.208844,133.170823 151.518093,100.881661 C154.766115,91.7900134 156.532611,81.7841453 156.532611,71.1908089 C156.532611,67.7326182 156.349691,64.3277654 156.014359,60.9740254 C174.994365,64.9789532 189.994093,77.7951797 197.977753,94.6319929 L205.456245,94.6319929 C195.805741,73.5558626 175.343638,59.2593455 152.035325,57.8174422 C151.874695,53.7675472 151.412827,49.8353947 150.628559,46.0557885 C163.09359,49.9411003 176.490782,58.2574943 187.022926,70.0821273 C195.213968,67.5482622 250.715262,70.4932993 250.715262,70.4932993" fill="#0db7ed"></path>
		<path d="M94.5748896,60.1789527 C95.4618172,59.0229262 96.4235798,57.9493312 97.472088,56.9344741 C97.60247,56.8083618 97.7366181,56.6822496 97.8707662,56.5588573 L97.8707662,56.5588573 C99.116448,55.3730535 100.459327,54.2503868 101.898748,53.2076984 C103.010688,52.3802196 104.178568,51.6081674 105.385495,50.903047 C109.224301,48.5052436 113.490257,46.8608744 117.985451,46.0557885 C122.480645,45.2451627 127.153803,45.2600766 131.639521,46.1231337 C134.858591,46.7865548 137.922393,47.8642836 140.750059,49.3467023 C138.661489,41.7629943 140.620063,27.2429112 148.059098,18.6988551 C140.306584,29.6193026 140.77495,42.5010004 146.008238,52.6212684 C139.494147,49.1651828 131.94837,48.1446042 124.644318,49.3874889 C117.34572,50.6247337 110.65881,54.4726024 105.385495,60.1789527 C105.064104,60.5364013 94.5748896,60.1789527 94.5748896,60.1789527" fill="#0db7ed"></path>
		<path d="M110.59396,67.2493826 C113.657115,63.5820854 117.776728,60.9302509 122.207661,59.5562197 C126.659752,58.1851286 131.404961,58.1142834 135.874116,59.3505801 C131.103045,53.1652697 123.385329,50.0663763 115.762255,50.7416803 C108.12917,51.4033645 101.169979,55.8427172 97.3531399,62.304172 C97.3531399,62.304172 107.530804,70.9419669 110.59396,67.2493826" fill="#0db7ed"></path>
		<path d="M61.8611025,108.494122 L73.6971437,108.494122 L73.6971437,97.2235541 L61.8611025,97.2235541 L61.8611025,108.494122 L61.8611025,108.494122 Z M46.3472251,108.494122 L58.1852802,108.494122 L58.1852802,97.2235541 L46.3472251,97.2235541 L46.3472251,108.494122 L46.3472251,108.494122 Z M30.8333477,108.494122 L42.6693889,108.494122 L42.6693889,97.2235541 L30.8333477,97.2235541 L30.8333477,108.494122 L30.8333477,108.494122 Z M15.3194704,108.494122 L27.1576293,108.494122 L27.1576293,97.2235541 L15.3194704,97.2235541 L15.3194704,108.494122 L15.3194704,108.494122 Z M0,108.494122 L11.8403993,108.494122 L11.8403993,97.2235541 L0,97.2235541 L0,108.494122 L0,108.494122 Z M30.8333477,94.6319929 L42.6693889,94.6319929 L42.6693889,83.3614245 L30.8333477,83.3614245 L30.8333477,94.6319929 L30.8333477,94.6319929 Z M15.3194704,94.6319929 L27.1576293,94.6319929 L27.1576293,83.3614245 L15.3194704,83.3614245 L15.3194704,94.6319929 L15.3194704,94.6319929 Z M46.2493905,94.6319929 L58.0895935,94.6319929 L58.0895935,83.3614245 L46.2493905,83.3614245 L46.2493905,94.6319929 L46.2493905,94.6319929 Z M61.8611025,94.6319929 L73.6971437,94.6319929 L73.6971437,83.3614245 L61.8611025,83.3614245 L61.8611025,94.6319929 L61.8611025,94.6319929 Z M46.3472251,80.7756033 L58.1852802,80.7756033 L58.1852802,69.5050349 L46.3472251,69.5050349 L46.3472251,80.7756033 L46.3472251,80.7756033 Z" fill="#FFFFFF"></path>
	</g>
</svg>