<svg width="32" height="32" viewBox="0 0 32 32" fill="none" xmlns="http://www.w3.org/2000/svg">
<path d="M16.0005 32C24.8371 32 32.0005 24.8366 32.0005 16C32.0005 7.16344 24.8371 0 16.0005 0C7.16394 0 0.000488281 7.16344 0.000488281 16C0.000488281 24.8366 7.16394 32 16.0005 32Z" fill="#7B5CF0"/>
<path d="M15.9998 30C23.732 30 29.9998 23.7322 29.9998 16C29.9998 8.26776 23.732 2 15.9998 2C8.26753 2 1.99976 8.26776 1.99976 16C1.99976 23.7322 8.26753 30 15.9998 30Z" fill="#7B5CF0"/>
<path d="M16.0002 27.9999C22.6279 27.9999 28.0002 22.6277 28.0002 16C28.0002 9.37231 22.6279 4 16.0002 4C9.37248 4 4.00018 9.37231 4.00018 16C4.00018 22.6277 9.37248 27.9999 16.0002 27.9999Z" fill="#000003"/>
<path d="M23.9999 12.7238V9.99991H22.6761V8.67603H19.9523V7.35216H17.2285V8.67603H14.5047V9.99991H11.7809V11.3238H9.05713V13.0477H7.73325V22.9524H9.05713V24.2762H10.3809V25.6001H17.2285V24.2762H19.9523V22.9524H22.6761V21.6285H23.9999V12.7238Z" fill="#7B5CF0"/>
<path d="M19.2856 17.3333C19.2856 18.6572 18.1903 19.7524 16.8664 19.7524C15.5426 19.7524 14.4473 18.6572 14.4473 17.3333C14.4473 16.0094 15.5426 14.9142 16.8664 14.9142C18.1903 14.9142 19.2856 16.0094 19.2856 17.3333Z" fill="#000003"/>
</svg>