<svg width="32" height="32" viewBox="0 0 32 32" fill="none" xmlns="http://www.w3.org/2000/svg">
<path d="M16.1312 0C7.42458 0 0.381836 7.04275 0.381836 15.7493C0.381836 24.4559 7.42458 31.4987 16.1312 31.4987C24.8378 31.4987 31.8806 24.4559 31.8806 15.7493C31.8806 7.04275 24.8378 0 16.1312 0Z" fill="#25C7B7"/>
<path d="M23.4573 16.8669L22.7399 15.6318L22.1517 14.5992L21.5423 13.5239L20.9117 12.4274L20.2811 11.3308L19.6506 10.2343L19.0201 9.13776L18.9988 9.1059C18.9562 9.03496 18.8924 8.97997 18.8164 8.94938C18.7404 8.91879 18.6557 8.9142 18.5765 8.93626L17.6937 9.20528L16.6186 9.51244L15.5435 9.81961L14.4684 10.1268L13.3933 10.4339L12.3181 10.741L11.243 11.0482L10.1679 11.3553L9.40618 11.5593C9.32719 11.58 9.25802 11.626 9.21043 11.6896C9.16284 11.7532 9.1401 11.8306 9.14621 11.9085L9.18013 12.4753L9.25004 13.5824L9.32103 14.7001L9.37674 15.7973L9.39064 16.3747C9.39164 16.4205 9.40215 16.4651 9.42149 16.5059C9.44084 16.5467 9.46863 16.5829 9.50302 16.612L9.51692 16.6238L10.0623 17.2011L10.856 18.0486L11.6507 18.895L12.4454 19.7414L13.24 20.5878L14.0346 21.4342L14.8292 22.2807L15.6239 23.1271C15.6682 23.1749 15.7265 23.2087 15.7908 23.2237C15.8551 23.2388 15.9223 23.2345 15.9839 23.2112L16.7443 22.8928L17.8194 22.4856L18.8945 22.0784L19.9697 21.6713L21.0448 21.2641L22.1199 20.8569L23.195 20.4498L24.2702 20.0426L24.5401 19.9466C24.6012 19.9245 24.6534 19.8816 24.6869 19.825C24.7204 19.7684 24.7331 19.7015 24.7227 19.6365L24.6451 18.9822L24.5149 17.8737C24.5083 17.8145 24.4816 17.7592 24.4388 17.7158C24.3959 17.6724 24.3391 17.6433 24.2785 17.6325C24.2179 17.6218 24.1559 17.6301 24.1007 17.6563C24.0455 17.6825 24.0001 17.7251 23.9708 17.7783L23.7338 18.2726C23.7039 18.3227 23.6594 18.3629 23.6064 18.3875C23.5534 18.4121 23.4945 18.4199 23.4372 18.4099L22.9471 18.3053C22.89 18.2953 22.8385 18.2669 22.8005 18.2247C22.7625 18.1825 22.7402 18.1292 22.7373 18.0732L22.6481 16.9551C22.6432 16.8788 22.6693 16.8035 22.7202 16.7461C22.771 16.6887 22.8423 16.6542 22.9187 16.6504L23.4179 16.6212C23.4943 16.6174 23.5687 16.6446 23.6254 16.6966C23.682 16.7487 23.7154 16.8214 23.7177 16.8978L23.7496 17.5341C23.7509 17.573 23.7606 17.6111 23.7781 17.6451C23.7956 17.6791 23.8204 17.7082 23.8506 17.7304C23.8808 17.7525 23.9156 17.7671 23.9524 17.7732C23.9891 17.7793 24.0267 17.7767 24.0622 17.7656L24.5583 17.6078C24.6138 17.5904 24.6612 17.5535 24.692 17.5043C24.7227 17.4552 24.7347 17.3971 24.726 17.3401L24.562 16.1682C24.5562 16.1272 24.5419 16.0881 24.5199 16.0529C24.4979 16.0178 24.4688 15.9876 24.4348 15.9639C24.4008 15.9403 24.3627 15.9239 24.3227 15.916C24.2827 15.9081 24.2417 15.9089 24.2021 15.9183L23.6879 16.0332C23.6309 16.0471 23.5706 16.0393 23.5195 16.0113C23.4684 15.9832 23.4304 15.9369 23.4137 15.8818L23.0908 14.9271C23.0759 14.8792 23.0784 14.8282 23.0979 14.7816C23.1175 14.735 23.1531 14.6956 23.1988 14.6688L23.6591 14.413C23.7021 14.3875 23.7363 14.3508 23.7575 14.3072C23.7788 14.2636 23.7861 14.2151 23.7786 14.1676L23.6466 13.1037C23.6362 13.0368 23.6 12.9758 23.5446 12.9328C23.4892 12.8898 23.4188 12.8682 23.3486 12.8728L22.7911 12.9178C22.7356 12.9215 22.6805 12.909 22.6326 12.8821C22.5847 12.8553 22.5464 12.8154 22.5233 12.7678L22.1945 11.9602C22.1767 11.921 22.1685 11.8789 22.1702 11.8365C22.1719 11.7942 22.1836 11.7529 22.2043 11.7155L22.5321 11.2025C22.5765 11.1345 22.5952 11.0538 22.5851 10.974C22.5751 10.8943 22.5367 10.8211 22.4776 10.7679L21.9281 10.2654C21.8854 10.2267 21.8328 10.1999 21.7758 10.1876C21.7187 10.1754 21.6594 10.1782 21.6042 10.1957L21.0921 10.3442C21.0367 10.3618 20.9772 10.3642 20.9205 10.3512C20.8638 10.3382 20.8095 10.3102 20.7633 10.27L19.9239 9.55242C19.8826 9.51534 19.8502 9.46914 19.8291 9.41749C19.8081 9.36583 19.7989 9.31007 19.8023 9.25425L19.8808 8.6455C19.8864 8.57893 19.8686 8.51244 19.8304 8.45731C19.7921 8.40218 19.7359 8.36219 19.6714 8.34482L18.891 8.10649C18.835 8.09124 18.7761 8.09625 18.7233 8.1207C18.6705 8.14515 18.6267 8.18762 18.5986 8.24158L18.3279 8.78376C18.3018 8.83327 18.2618 8.87397 18.2133 8.90036C18.1647 8.92676 18.1098 8.93748 18.0554 8.93115L17.192 8.83753C17.1474 8.83301 17.1048 8.81673 17.0684 8.79026C17.032 8.76379 17.0032 8.72814 16.9847 8.68714L16.7109 8.03642C16.6808 7.96975 16.6293 7.91425 16.5639 7.87872C16.4986 7.84318 16.4232 7.83001 16.3486 7.84121L15.5703 7.95658C15.5061 7.96613 15.4474 7.99684 15.402 8.04382C15.3566 8.09079 15.3271 8.15124 15.3178 8.21672L15.215 9.0232C15.2066 9.08268 15.1823 9.13879 15.1454 9.18437C15.1084 9.22994 15.0603 9.26307 15.0068 9.28002L14.1664 9.54904C14.1156 9.5652 14.0708 9.59541 14.0362 9.63655C14.0016 9.6777 13.9785 9.72818 13.9691 9.78174L13.8778 10.5894C13.8702 10.6295 13.8708 10.6707 13.8795 10.7108C13.8882 10.7508 13.9049 10.7888 13.9285 10.8227C13.9521 10.8565 13.982 10.8855 14.0163 10.9082C14.0507 10.9309 14.0888 10.9467 14.1287 10.9548L14.6803 11.071C14.7367 11.0818 14.7888 11.1084 14.8316 11.1478C14.8743 11.187 14.9059 11.2373 14.9231 11.2937L15.194 12.2473C15.2101 12.3006 15.2112 12.3573 15.1975 12.4114C15.1837 12.4654 15.1555 12.5148 15.1164 12.5535L14.7039 12.9476C14.6639 12.9867 14.635 13.0372 14.6211 13.0928C14.6072 13.1484 14.6089 13.2066 14.6259 13.2614L14.952 14.38C14.9698 14.4347 15.0022 14.4833 15.0452 14.5203C15.0883 14.5573 15.1403 14.5814 15.1959 14.5901L15.677 14.6653C15.7326 14.674 15.7894 14.6672 15.8416 14.6454C15.8938 14.6236 15.9395 14.5877 15.9737 14.5416L16.3358 14.0909C16.3701 14.0448 16.4159 14.0089 16.4681 13.9871C16.5203 13.9653 16.5771 13.9585 16.6327 13.9672L17.7106 14.111C17.771 14.1203 17.8243 14.1486 17.864 14.1916C17.9037 14.2346 17.9276 14.2901 17.932 14.3487L17.9971 15.3409C17.9982 15.3714 18.0049 15.4014 18.0171 15.4294C18.0292 15.4574 18.0464 15.4828 18.0678 15.5043C18.0892 15.5258 18.1143 15.5429 18.1418 15.5548C18.1693 15.5668 18.1985 15.5733 18.2289 15.5741L18.8103 15.5933C18.8699 15.5951 18.9284 15.5787 18.9787 15.5462C19.0289 15.5138 19.0683 15.4668 19.0918 15.4116L19.2981 14.9291C19.3204 14.8779 19.3555 14.8333 19.4003 14.7993C19.4451 14.7654 19.4978 14.7434 19.5529 14.7355L20.4024 14.6153C20.4569 14.6078 20.5078 14.615 20.5539 14.6358C20.6 14.6567 20.6393 14.6904 20.6675 14.7333L21.0267 15.2772C21.061 15.3284 21.1103 15.3683 21.1678 15.3914C21.2253 15.4146 21.2885 15.42 21.349 15.4069L22.3061 15.2071C22.3725 15.193 22.4308 15.1539 22.4695 15.0975C22.5083 15.0411 22.5243 14.9717 22.5145 14.903L22.4054 14.2158C22.3973 14.159 22.4065 14.1011 22.4319 14.0495C22.4572 13.998 22.4976 13.9552 22.547 13.9265L22.9972 13.6508C23.0386 13.6265 23.0729 13.5912 23.0967 13.5489C23.1204 13.5067 23.1327 13.4592 23.1323 13.4109L23.1284 12.8267C23.128 12.7586 23.1081 12.6923 23.0713 12.6365C23.0346 12.5807 22.9831 12.5383 22.9234 12.5148L22.2979 12.2674C22.2414 12.2452 22.1931 12.2066 22.1593 12.1567C22.1254 12.1068 22.1073 12.048 22.1073 11.9879L22.1063 11.0731C22.1063 11.0134 22.0849 10.9551 22.0458 10.9071C22.0067 10.859 21.9522 10.8239 21.891 10.8073L21.4018 10.6761C21.3424 10.6599 21.2893 10.6265 21.2495 10.58C21.2097 10.5335 21.1856 10.4761 21.1803 10.4159L21.1164 9.38576C21.1089 9.29843 21.0722 9.21774 21.0129 9.15868C20.9536 9.09962 20.8761 9.06671 20.7953 9.06634L20.143 9.06423C20.0881 9.06418 20.034 9.05048 19.9854 9.02424C19.9367 8.998 19.8952 8.96 19.8644 8.91434L19.5162 8.34647C19.4784 8.29064 19.4243 8.24891 19.3627 8.22769C19.3011 8.20647 19.2352 8.20687 19.1738 8.22883L18.5995 8.40983C18.5443 8.4302 18.4847 8.43675 18.4266 8.42892C18.3686 8.4211 18.3142 8.39916 18.2683 8.36537L17.6741 7.93828C17.6161 7.89682 17.5455 7.87773 17.4749 7.8851C17.4043 7.89246 17.3395 7.92583 17.2914 7.9792L17.0176 8.30914C16.9695 8.36251 16.9047 8.39588 16.8341 8.40325C16.7635 8.41061 16.6929 8.39152 16.635 8.35006L16.0307 7.91878C15.9847 7.88499 15.9303 7.86305 15.8723 7.85522C15.8142 7.8474 15.7547 7.85395 15.6994 7.87432L15.082 8.07225C15.0207 8.09421 14.9547 8.09461 14.8932 8.07339C14.8316 8.05217 14.7775 8.01044 14.7397 7.95461L14.5004 7.54927C14.4669 7.49721 14.4189 7.45708 14.3628 7.43461C14.3067 7.41215 14.245 7.4086 14.1866 7.42432L13.4348 7.61699C13.3697 7.63412 13.3104 7.66977 13.263 7.71974C13.2157 7.76971 13.1823 7.83201 13.1666 7.90026L13.0052 8.60922C12.9918 8.66743 12.962 8.72081 12.9193 8.76241C12.8766 8.80401 12.8233 8.83183 12.7656 8.84238L11.9894 8.97051C11.9338 8.98055 11.8835 9.00746 11.8452 9.04742C11.8069 9.08738 11.7829 9.13854 11.7763 9.1929L11.7069 9.82166C11.7003 9.87602 11.7113 9.9311 11.7384 9.97945C11.7655 10.0278 11.8072 10.0672 11.8571 10.0923L12.3524 10.3034C12.4024 10.3285 12.4442 10.3679 12.4711 10.4168C12.498 10.4657 12.5085 10.5209 12.501 10.5751L12.4057 11.3858C12.3975 11.4398 12.4068 11.4948 12.4319 11.5422C12.457 11.5897 12.4966 11.627 12.5447 11.6489L13.0368 11.856C13.0849 11.878 13.1381 11.8837 13.1893 11.8724C13.2406 11.8612 13.2873 11.8335 13.3228 11.7934L13.733 11.3337C13.7686 11.2936 13.8152 11.2659 13.8665 11.2546C13.9177 11.2434 13.9709 11.2491 14.019 11.2711L14.8065 11.6017C14.8567 11.6245 14.8988 11.6624 14.9263 11.7104C14.9538 11.7584 14.9654 11.8139 14.9591 11.8685L14.8528 12.7053C14.8465 12.76 14.8581 12.8155 14.8856 12.8635C14.913 12.9115 14.9551 12.9494 15.0053 12.9722L15.6846 13.2633C15.7387 13.288 15.7984 13.2943 15.8557 13.2814C15.9131 13.2685 15.965 13.2372 16.0042 13.1921L16.4306 12.7115C16.4704 12.6659 16.5229 12.6343 16.581 12.6214C16.639 12.6085 16.6994 12.6149 16.7536 12.6398L17.5452 12.9713C17.5951 12.9949 17.6369 13.0334 17.6654 13.0814C17.6939 13.1294 17.7077 13.1846 17.7052 13.2404L17.6704 14.0501C17.6678 14.106 17.6816 14.1612 17.7101 14.2092C17.7386 14.2572 17.7804 14.2957 17.8303 14.3193L18.6229 14.6508C18.6771 14.6757 18.7375 14.6821 18.7956 14.6692C18.8536 14.6563 18.9061 14.6247 18.9459 14.5791L19.3723 14.0986C19.4116 14.0535 19.4635 14.0221 19.5208 14.0092C19.5782 13.9963 19.6379 14.0027 19.692 14.0273L20.3712 14.3185C20.4214 14.3413 20.4636 14.3792 20.491 14.4272C20.5184 14.4752 20.53 14.5307 20.5237 14.5853L20.4784 15.103C20.4721 15.1577 20.4836 15.2132 20.5111 15.2612C20.5385 15.3092 20.5806 15.3471 20.6308 15.3699L21.4193 15.7005C21.4674 15.7225 21.5206 15.7283 21.5719 15.717C21.6231 15.7058 21.6697 15.6781 21.7053 15.638L22.0645 15.2293C22.0999 15.1892 22.1466 15.1615 22.1979 15.1502C22.2491 15.1389 22.3023 15.1447 22.3504 15.1667L22.8425 15.3738C22.8906 15.3957 22.9301 15.433 22.9552 15.4805C22.9804 15.5279 22.9897 15.5829 22.9814 15.6369L22.886 16.4475C22.8788 16.4909 22.882 16.5355 22.8951 16.5777C22.9082 16.6199 22.9309 16.6585 22.9611 16.6905L23.3723 17.1279C23.4172 17.1766 23.4772 17.2089 23.5419 17.22C23.6067 17.2312 23.6732 17.2208 23.7314 17.1902L24.1946 16.9397C24.2446 16.9137 24.2996 16.9025 24.3539 16.9071C24.4082 16.9117 24.4599 16.9321 24.5043 16.9658L24.7908 17.1977C24.8482 17.241 24.8929 17.2997 24.9198 17.3671C24.9467 17.4344 24.9545 17.5077 24.9424 17.579L24.8028 18.3092C24.7923 18.3681 24.7968 18.4287 24.8158 18.4854C24.8348 18.5421 24.8676 18.5929 24.9115 18.6328L25.2404 18.9434C25.2933 18.9919 25.3606 19.023 25.4318 19.0328C25.503 19.0425 25.5749 19.0304 25.6384 18.9979L26.5073 18.4867C26.5729 18.4532 26.647 18.4411 26.7195 18.4522C26.792 18.4633 26.8587 18.497 26.9101 18.5483L27.3905 19.0268C27.451 19.0871 27.4814 19.1708 27.4741 19.255L27.4146 19.9218C27.4077 20.0026 27.4295 20.0835 27.4757 20.1488C27.5218 20.2142 27.5894 20.2595 27.6662 20.2765L27.9877 20.3479C28.0791 20.3671 28.1739 20.3479 28.2516 20.295C28.3294 20.2421 28.3835 20.1605 28.4029 20.0685L28.5 19.6582C28.5193 19.5661 28.5734 19.4846 28.6512 19.4317C28.7289 19.3788 28.8237 19.3596 28.9152 19.3787L29.8598 19.5818C29.9372 19.5987 30.0054 19.6405 30.0562 19.7L30.1862 19.8638C30.2489 19.9382 30.2848 20.0306 30.2894 20.1265C30.294 20.2225 30.267 20.3175 30.2112 20.3978L29.9374 20.7575C29.8926 20.8215 29.8687 20.8967 29.8687 20.9735C29.8687 21.0503 29.8926 21.1255 29.9374 21.1895L30.1841 21.5288C30.2369 21.6075 30.3149 21.6663 30.4056 21.6967C30.4964 21.7271 30.5946 21.7277 30.6858 21.6984L31.3714 21.4899C31.4502 21.4651 31.5342 21.4667 31.6116 21.4947C31.6891 21.5226 31.7558 21.5755 31.8024 21.6451L31.9984 21.9277C32.0489 22.0028 32.0744 22.0902 32.0717 22.1788C32.0681 22.2674 32.0364 22.3527 31.9808 22.4239L31.5832 22.9349C31.5394 22.9912 31.5108 23.0578 31.5002 23.128C31.4896 23.1982 31.4972 23.2701 31.5226 23.3367L31.6984 23.839C31.7317 23.9196 31.7861 23.99 31.8552 24.0427C31.9243 24.0955 32.006 24.1289 32.0913 24.1395L32.2791 24.1606C32.2791 24.1606 32.1302 25.1422 31.9805 25.7417C31.9805 25.7417 30.3622 29.4452 25.8339 31.0529C25.8339 31.0529 20.1568 32.9992 16.1312 30.0143C16.1312 30.0143 11.7657 27.3379 9.89835 22.2997C9.89835 22.2997 8.79073 18.7877 11.1067 15.3961C11.1067 15.3961 12.5089 12.9797 15.7302 11.8812C15.7302 11.8812 18.0223 11.1208 20.4257 12.0989C20.4257 12.0989 22.1014 12.7719 23.4574 16.867L23.4574 16.867L23.4573 16.8669Z" fill="white"/>
</svg>