<svg width="32" height="32" viewBox="0 0 32 32" fill="none" xmlns="http://www.w3.org/2000/svg">
<path fill-rule="evenodd" clip-rule="evenodd" d="M16 32C24.8366 32 32 24.8366 32 16C32 7.16344 24.8366 0 16 0C7.16344 0 0 7.16344 0 16C0 24.8366 7.16344 32 16 32Z" fill="white"/>
<path d="M15.9967 6.32794C10.6977 6.32794 6.4082 10.6174 6.4082 15.9164C6.4082 21.2154 10.6977 25.5049 15.9967 25.5049C21.2957 25.5049 25.5852 21.2154 25.5852 15.9164C25.5852 10.6174 21.2957 6.32794 15.9967 6.32794ZM19.9177 11.1514C19.9177 11.0014 20.0257 10.8944 20.1747 10.8944C20.3247 10.8944 20.4317 11.0014 20.4317 11.1514C20.4317 11.3014 20.3247 11.4084 20.1747 11.4084C20.0257 11.4084 19.9177 11.3014 19.9177 11.1514ZM21.9547 20.1549C21.9642 20.1654 21.9727 20.1769 21.9802 20.1894C21.8372 20.3594 21.1447 21.1279 20.3437 21.1279C19.6937 21.1279 19.4477 20.6869 19.3642 20.3894C19.2682 20.0439 19.0777 19.5139 18.8547 18.9044C19.5582 17.8904 20.0132 17.0074 20.0132 16.2874C20.0132 15.7249 19.7977 15.3734 19.3747 15.3734C18.8827 15.3734 18.2957 15.8874 18.2957 16.9999C18.2957 17.3134 18.3402 17.6749 18.4347 18.0784C18.2412 18.5294 17.9612 19.1459 17.7092 19.6674C17.2727 20.5939 16.8977 21.1649 16.4752 21.1649C16.1667 21.1649 16.0022 20.8249 16.0022 20.3109C16.0022 19.3679 16.4857 17.7854 16.4857 16.9364C16.4857 16.1294 16.1142 15.6899 15.4237 15.6899C14.9162 15.6899 14.4087 15.9249 14.1147 16.1294L14.3357 13.9784C14.5357 13.9049 14.9272 13.7899 15.3617 13.7899C15.9052 13.7899 16.1617 14.0474 16.1617 14.5234C16.1617 14.7714 16.0902 15.0839 15.9862 15.4399C16.3697 15.3344 16.7622 15.2664 17.1372 15.2664C17.9797 15.2664 18.3547 15.7039 18.3547 16.2054C18.3547 16.7989 18.0077 17.7889 17.0572 19.2499C17.2627 19.8069 17.4352 20.2299 17.5222 20.4769C17.7187 21.0384 17.9372 21.1649 18.1787 21.1649C18.4112 21.1649 18.6827 20.9739 19.0917 20.2724C19.1152 20.2344 19.1402 20.1974 19.1667 20.1624L21.9547 20.1549ZM17.7502 14.1089C17.6242 14.1089 17.5222 14.0069 17.5222 13.8809C17.5222 13.7559 17.6242 13.6529 17.7502 13.6529C17.8762 13.6529 17.9782 13.7559 17.9782 13.8809C17.9782 14.0069 17.8762 14.1089 17.7502 14.1089ZM13.2392 21.1999C12.4692 21.1429 12.1117 20.5374 12.0002 20.2504C11.7632 19.6134 11.7027 19.1629 11.3802 19.1629C11.2257 19.1629 11.0327 19.2719 10.8327 19.4659C10.8152 19.4829 10.7977 19.5004 10.7802 19.5174L9.9392 19.5449L11.4402 17.8329L11.5682 17.7964C11.7112 17.7524 11.8917 17.6929 12.0062 17.6929C12.2542 17.6929 12.4132 17.9299 12.4132 18.3649C12.4132 19.1129 12.0272 20.3099 12.0272 20.8229C12.0272 21.0709 12.1117 21.1754 12.3302 21.1754C12.6057 21.1754 12.9522 20.8699 13.2392 20.4619L13.2392 21.1999ZM12.4812 14.9274C12.4812 15.0534 12.3792 15.1554 12.2532 15.1554C12.1272 15.1554 12.0252 15.0534 12.0252 14.9274C12.0252 14.8014 12.1272 14.6994 12.2532 14.6994C12.3792 14.6994 12.4812 14.8014 12.4812 14.9274ZM10.1852 10.9169C10.1852 10.7669 10.2932 10.6589 10.4422 10.6589C10.5932 10.6589 10.7002 10.7669 10.7002 10.9169C10.7002 11.0669 10.5932 11.1739 10.4422 11.1739C10.2932 11.1739 10.1852 11.0669 10.1852 10.9169ZM9.7297 13.1459C9.7297 13.0199 9.8317 12.9179 9.9577 12.9179C10.0837 12.9179 10.1857 13.0199 10.1857 13.1459C10.1857 13.2719 10.0837 13.3739 9.9577 13.3739C9.8317 13.3739 9.7297 13.2719 9.7297 13.1459Z" fill="#00AD9F"/>
</svg>