<svg width="32" height="32" viewBox="0 0 32 32" fill="none" xmlns="http://www.w3.org/2000/svg">
<path d="M6.66797 16.6663C7.4064 16.6663 8 16.0727 8 15.3343C8 14.5959 7.4064 14.0023 6.66797 14.0023C5.92953 14.0023 5.33594 14.5959 5.33594 15.3343C5.33594 16.0727 5.92953 16.6663 6.66797 16.6663Z" fill="#0B0D0E"/>
<path d="M15.9987 16.6663C16.7371 16.6663 17.3307 16.0727 17.3307 15.3343C17.3307 14.5959 16.7371 14.0023 15.9987 14.0023C15.2602 14.0023 14.6667 14.5959 14.6667 15.3343C14.6667 16.0727 15.2602 16.6663 15.9987 16.6663Z" fill="#0B0D0E"/>
<path d="M25.332 16.6663C26.0704 16.6663 26.664 16.0727 26.664 15.3343C26.664 14.5959 26.0704 14.0023 25.332 14.0023C24.5935 14.0023 24 14.5959 24 15.3343C24 16.0727 24.5935 16.6663 25.332 16.6663Z" fill="#0B0D0E"/>
<rect x="4" y="20.668" width="24" height="8.66667" rx="2" fill="#0B0D0E"/>
<rect x="4" y="2.66797" width="24" height="8.66667" rx="2" fill="#0B0D0E"/>
</svg>