<svg width="32" height="32" viewBox="0 0 32 32" fill="none" xmlns="http://www.w3.org/2000/svg">
<path fill-rule="evenodd" clip-rule="evenodd" d="M16 32C24.8366 32 32 24.8366 32 16C32 7.16344 24.8366 0 16 0C7.16344 0 0 7.16344 0 16C0 24.8366 7.16344 32 16 32Z" fill="white"/>
<path d="M26 16C26 21.5227 21.5227 26 16 26C10.4772 26 6 21.5227 6 16C6 10.4772 10.4772 6 16 6C21.5227 6 26 10.4772 26 16Z" fill="#0B0D0E"/>
<path d="M20.7143 16C20.7143 18.6153 18.5858 20.7143 16 20.7143C13.4142 20.7143 11.2857 18.6153 11.2857 16C11.2857 13.3847 13.4142 11.2857 16 11.2857C18.5858 11.2857 20.7143 13.3847 20.7143 16Z" fill="white"/>
</svg>