<svg width="33" height="32" viewBox="0 0 33 32" fill="none" xmlns="http://www.w3.org/2000/svg">
<path d="M16.5 32C25.3366 32 32.5 24.8366 32.5 16C32.5 7.16344 25.3366 0 16.5 0C7.66344 0 0.5 7.16344 0.5 16C0.5 24.8366 7.66344 32 16.5 32Z" fill="#46E3B7"/>
<path d="M21.2402 19.02H11.7602C11.3502 19.02 11.0202 18.69 11.0202 18.28V13.81C11.0202 13.4 11.3502 13.07 11.7602 13.07H21.2402C21.6502 13.07 21.9802 13.4 21.9802 13.81V18.28C21.9802 18.69 21.6502 19.02 21.2402 19.02Z" fill="white"/>
<path d="M17.47 26.75H11.76C11.35 26.75 11.02 26.42 11.02 26.01V21.54C11.02 21.13 11.35 20.8 11.76 20.8H17.47C17.88 20.8 18.21 21.13 18.21 21.54V26.01C18.21 26.42 17.88 26.75 17.47 26.75Z" fill="white"/>
<path d="M17.4701 11.29H11.7601C11.3501 11.29 11.0201 10.96 11.0201 10.55V6.08C11.0201 5.67 11.3501 5.34 11.7601 5.34H17.4701C17.8801 5.34 18.2101 5.67 18.2101 6.08V10.55C18.2101 10.96 17.8801 11.29 17.4701 11.29Z" fill="white"/>
<path d="M27.1899 11.29H21.4799C21.0699 11.29 20.7399 10.96 20.7399 10.55V6.08C20.7399 5.67 21.0699 5.34 21.4799 5.34H27.1899C27.5999 5.34 27.9299 5.67 27.9299 6.08V10.55C27.9299 10.96 27.5999 11.29 27.1899 11.29Z" fill="white"/>
<path d="M27.1899 19.02H24.3399C23.9299 19.02 23.5999 18.69 23.5999 18.28V13.81C23.5999 13.4 23.9299 13.07 24.3399 13.07H27.1899C27.5999 13.07 27.9299 13.4 27.9299 13.81V18.28C27.9299 18.69 27.5999 19.02 27.1899 19.02Z" fill="white"/>
<path d="M27.1899 26.75H21.4799C21.0699 26.75 20.7399 26.42 20.7399 26.01V21.54C20.7399 21.13 21.0699 20.8 21.4799 20.8H27.1899C27.5999 20.8 27.9299 21.13 27.9299 21.54V26.01C27.9299 26.42 27.5999 26.75 27.1899 26.75Z" fill="white"/>
</svg>