<svg width="32" height="32" viewBox="0 0 32 32" fill="none" xmlns="http://www.w3.org/2000/svg">
<path d="M16 32C24.8366 32 32 24.8366 32 16C32 7.16344 24.8366 0 16 0C7.16344 0 0 7.16344 0 16C0 24.8366 7.16344 32 16 32Z" fill="#E5E7EB"/>
<path d="M16 12C14.9 12 14 12.9 14 14V14.5H18V14C18 12.9 17.1 12 16 12Z" fill="#9CA3AF"/>
<path d="M14 17.5V18C14 19.1 14.9 20 16 20C17.1 20 18 19.1 18 18V17.5H14Z" fill="#9CA3AF"/>
<path d="M21 16C21 13.2 18.8 11 16 11C13.2 11 11 13.2 11 16C11 18.8 13.2 21 16 21C18.8 21 21 18.8 21 16ZM20 16C20 18.2 18.2 20 16 20C13.8 20 12 18.2 12 16C12 13.8 13.8 12 16 12C18.2 12 20 13.8 20 16Z" fill="#9CA3AF"/>
</svg>